# Low-poly Sword (CC0 placeholder, simple geometry for Godot import)
# Vertices for a basic sword: blade + crossguard + handle
v -0.04 0.0 0.0
v 0.04 0.0 0.0
v 0.04 0.0 -1.2
v -0.04 0.0 -1.2
v -0.02 0.0 -1.2
v 0.02 0.0 -1.2
v 0.02 0.0 -1.35
v -0.02 0.0 -1.35
v -0.15 0.0 -0.15
v 0.15 0.0 -0.15
v 0.15 0.0 -0.25
v -0.15 0.0 -0.25
v -0.03 0.03 0.1
v 0.03 0.03 0.1
v 0.03 -0.03 0.1
v -0.03 -0.03 0.1

# Blade faces
f 1 2 3
f 1 3 4
f 5 6 7
f 5 7 8

# Crossguard
f 9 10 11
f 9 11 12

# Handle
f 13 14 15
f 13 15 16

# Simple tip
f 7 8 5
f 7 5 6

# UVs and normals omitted for simplicity - Godot will generate
